<svg width="346" height="36" viewBox="0 0 346 36" fill="none" xmlns="http://www.w3.org/2000/svg">
<path d="M12.424 1.592C14.856 1.592 17.096 2.2 19.144 3.416C21.224 4.632 22.872 6.28 24.088 8.36C25.304 10.408 25.912 12.648 25.912 15.08V21.512C25.912 23.944 25.304 26.2 24.088 28.28C22.872 30.328 21.224 31.96 19.144 33.176C17.096 34.392 14.856 35 12.424 35H0.0880003V1.592H12.424ZM24.136 15.08C24.136 12.968 23.608 11.016 22.552 9.224C21.496 7.432 20.056 6.008 18.232 4.952C16.44 3.896 14.488 3.368 12.376 3.368H1.864V33.224H12.376C14.488 33.224 16.44 32.696 18.232 31.64C20.056 30.584 21.496 29.16 22.552 27.368C23.608 25.576 24.136 23.624 24.136 21.512V15.08ZM48.2913 0.871999C50.7873 0.871999 53.0913 1.496 55.2032 2.744C57.3153 3.96 58.9793 5.624 60.1953 7.736C61.4433 9.848 62.0673 12.152 62.0673 14.648V21.944C62.0673 24.44 61.4433 26.744 60.1953 28.856C58.9793 30.968 57.3153 32.648 55.2032 33.896C53.0913 35.112 50.7873 35.72 48.2913 35.72C45.7953 35.72 43.4913 35.112 41.3793 33.896C39.2673 32.648 37.5873 30.968 36.3393 28.856C35.1233 26.744 34.5153 24.44 34.5153 21.944V14.648C34.5153 12.152 35.1233 9.848 36.3393 7.736C37.5873 5.624 39.2673 3.96 41.3793 2.744C43.4913 1.496 45.7953 0.871999 48.2913 0.871999ZM36.2913 21.944C36.2913 24.12 36.8193 26.136 37.8753 27.992C38.9633 29.816 40.4193 31.272 42.2433 32.36C44.0993 33.416 46.1153 33.944 48.2913 33.944C50.4673 33.944 52.4673 33.416 54.2913 32.36C56.1473 31.272 57.6033 29.816 58.6593 27.992C59.7473 26.136 60.2913 24.12 60.2913 21.944V14.648C60.2913 12.472 59.7473 10.472 58.6593 8.648C57.6033 6.792 56.1473 5.336 54.2913 4.28C52.4673 3.192 50.4673 2.648 48.2913 2.648C46.1153 2.648 44.0993 3.192 42.2433 4.28C40.4193 5.336 38.9633 6.792 37.8753 8.648C36.8193 10.472 36.2913 12.472 36.2913 14.648V21.944ZM91.0705 2.696C92.9905 3.592 94.4945 4.92 95.5825 6.68C96.7025 8.44 97.2625 10.392 97.2625 12.536C97.2625 15.032 96.4945 17.272 94.9585 19.256C93.4545 21.208 91.5185 22.504 89.1505 23.144L97.6465 35H95.5345L87.3265 23.48L85.7905 23.528H73.7425V35H71.9665V1.592H84.6865C86.0945 1.592 87.2945 1.688 88.2865 1.88C89.3105 2.04 90.2385 2.312 91.0705 2.696ZM86.2705 21.752C87.9345 21.752 89.4705 21.336 90.8785 20.504C92.2865 19.672 93.4065 18.552 94.2385 17.144C95.0705 15.736 95.4865 14.2 95.4865 12.536C95.4865 10.68 94.9905 9 93.9985 7.496C93.0385 5.992 91.6945 4.872 89.9665 4.136C88.7185 3.624 86.9585 3.368 84.6865 3.368H73.7425V21.752H86.2705ZM107.546 1.592L119.402 19.448L131.162 1.592H133.274L120.266 21.32V35H118.49V21.32L105.434 1.592H107.546ZM153.973 1.592H155.845L169.573 35H167.653L163.141 23.96H146.677L142.117 35H140.245L153.973 1.592ZM147.397 22.232H162.421L154.885 3.896L147.397 22.232ZM192.768 1.592C194.88 1.592 196.56 1.912 197.808 2.552C199.312 3.32 200.464 4.376 201.264 5.72C202.096 7.064 202.512 8.568 202.512 10.232C202.512 11.8 202.096 13.256 201.264 14.6C200.432 15.912 199.296 16.952 197.856 17.72C199.584 18.328 201.04 19.384 202.224 20.888C203.408 22.392 204 24.088 204 25.976C204 27.64 203.568 29.176 202.704 30.584C201.872 31.96 200.752 33.048 199.344 33.848C198.64 34.232 197.856 34.52 196.992 34.712C196.128 34.904 194.976 35 193.536 35H178.752V1.592H192.768ZM225.948 0.871999C228.444 0.871999 230.748 1.496 232.859 2.744C234.972 3.96 236.636 5.624 237.852 7.736C239.1 9.848 239.724 12.152 239.724 14.648V21.944C239.724 24.44 239.1 26.744 237.852 28.856C236.636 30.968 234.972 32.648 232.859 33.896C230.748 35.112 228.444 35.72 225.948 35.72C223.452 35.72 221.148 35.112 219.036 33.896C216.924 32.648 215.244 30.968 213.996 28.856C212.78 26.744 212.172 24.44 212.172 21.944V14.648C212.172 12.152 212.78 9.848 213.996 7.736C215.244 5.624 216.924 3.96 219.036 2.744C221.148 1.496 223.452 0.871999 225.948 0.871999ZM213.948 21.944C213.948 24.12 214.476 26.136 215.532 27.992C216.62 29.816 218.076 31.272 219.9 32.36C221.756 33.416 223.772 33.944 225.948 33.944C228.124 33.944 230.124 33.416 231.948 32.36C233.804 31.272 235.26 29.816 236.316 27.992C237.404 26.136 237.948 24.12 237.948 21.944V14.648C237.948 12.472 237.404 10.472 236.316 8.648C235.26 6.792 233.804 5.336 231.948 4.28C230.124 3.192 228.124 2.648 225.948 2.648C223.772 2.648 221.756 3.192 219.9 4.28C218.076 5.336 216.62 6.792 215.532 8.648C214.476 10.472 213.948 12.472 213.948 14.648V21.944ZM261.479 0.871999C263.975 0.871999 266.279 1.496 268.391 2.744C270.503 3.96 272.167 5.624 273.383 7.736C274.631 9.848 275.255 12.152 275.255 14.648V21.944C275.255 24.44 274.631 26.744 273.383 28.856C272.167 30.968 270.503 32.648 268.391 33.896C266.279 35.112 263.975 35.72 261.479 35.72C258.983 35.72 256.679 35.112 254.567 33.896C252.455 32.648 250.775 30.968 249.527 28.856C248.311 26.744 247.703 24.44 247.703 21.944V14.648C247.703 12.152 248.311 9.848 249.527 7.736C250.775 5.624 252.455 3.96 254.567 2.744C256.679 1.496 258.983 0.871999 261.479 0.871999ZM249.479 21.944C249.479 24.12 250.007 26.136 251.063 27.992C252.151 29.816 253.607 31.272 255.431 32.36C257.287 33.416 259.303 33.944 261.479 33.944C263.655 33.944 265.655 33.416 267.479 32.36C269.335 31.272 270.791 29.816 271.847 27.992C272.935 26.136 273.479 24.12 273.479 21.944V14.648C273.479 12.472 272.935 10.472 271.847 8.648C270.791 6.792 269.335 5.336 267.479 4.28C265.655 3.192 263.655 2.648 261.479 2.648C259.303 2.648 257.287 3.192 255.431 4.28C253.607 5.336 252.151 6.792 251.063 8.648C250.007 10.472 249.479 12.472 249.479 14.648V21.944ZM286.306 1.592V24.2L308.962 1.592H311.458L297.49 15.512L311.41 35H309.298L296.242 16.76L286.306 26.696V35H284.53V1.592H286.306ZM333.261 19.016C330.541 18.472 328.317 17.88 326.589 17.24C324.893 16.568 323.549 15.672 322.557 14.552C321.597 13.4 321.117 11.928 321.117 10.136C321.117 8.28 321.597 6.648 322.557 5.24C323.549 3.832 324.925 2.744 326.685 1.976C328.477 1.208 330.541 0.823999 332.877 0.823999C335.117 0.823999 337.165 1.304 339.021 2.264C340.909 3.192 342.397 4.504 343.485 6.2C344.573 7.896 345.117 9.832 345.117 12.008H343.341C343.341 10.12 342.877 8.456 341.949 7.016C341.021 5.576 339.757 4.472 338.157 3.704C336.557 2.904 334.781 2.504 332.829 2.504C331.101 2.504 329.485 2.776 327.981 3.32C326.477 3.864 325.245 4.696 324.285 5.816C323.357 6.936 322.893 8.344 322.893 10.04C322.893 11.576 323.341 12.808 324.237 13.736C325.133 14.632 326.301 15.32 327.741 15.8C329.181 16.28 331.197 16.792 333.789 17.336C336.413 17.88 338.445 18.408 339.885 18.92C341.357 19.4 342.589 20.216 343.581 21.368C344.605 22.52 345.117 24.136 345.117 26.216C345.117 28.296 344.557 30.056 343.437 31.496C342.349 32.904 340.893 33.96 339.069 34.664C337.245 35.368 335.261 35.72 333.117 35.72C330.461 35.72 328.125 35.224 326.109 34.232C324.093 33.24 322.541 31.848 321.453 30.056C320.397 28.232 319.869 26.152 319.869 23.816H321.645C321.645 25.864 322.093 27.656 322.989 29.192C323.917 30.728 325.245 31.928 326.973 32.792C328.701 33.624 330.749 34.04 333.117 34.04C336.061 34.04 338.493 33.336 340.413 31.928C342.365 30.52 343.341 28.6 343.341 26.168C343.341 24.504 342.925 23.224 342.093 22.328C341.261 21.432 340.205 20.792 338.925 20.408C337.677 19.992 335.789 19.528 333.261 19.016Z" fill="#5A3100"/>
</svg>
